<svg width="179" height="38" viewBox="0 0 179 38" fill="none" xmlns="http://www.w3.org/2000/svg">
<g filter="url(#filter0_dd_3_55)">
<rect x="3.1" y="2.1" width="31.8" height="31.8" rx="7.9" fill="white"/>
<rect x="3.1" y="2.1" width="31.8" height="31.8" rx="7.9" fill="url(#paint0_linear_3_55)"/>
<rect x="3.1" y="2.1" width="31.8" height="31.8" rx="7.9" stroke="#D0D5DD" stroke-width="0.2"/>
<mask id="mask0_3_55" style="mask-type:luminance" maskUnits="userSpaceOnUse" x="7" y="6" width="24" height="24">
<path d="M31 6H7V30H31V6Z" fill="white"/>
</mask>
<g mask="url(#mask0_3_55)">
<path d="M12.412 10.1788V23.8056C12.4046 24.6623 12.1162 25.4808 11.6096 26.0835C11.1029 26.6861 10.4188 27.0241 9.706 27.0241C8.99316 27.0241 8.30911 26.6861 7.80244 26.0835C7.29577 25.4808 7.00741 24.6623 7 23.8056V10.1788C7.00047 9.31634 7.28594 8.48944 7.79364 7.87993C8.30135 7.27043 8.9897 6.92823 9.70732 6.9286C10.1561 6.92717 10.5979 7.06144 10.9922 7.31905C10.9983 7.32221 11.001 7.32608 11.0039 7.32608C11.0054 7.32809 11.0075 7.32934 11.0098 7.3296C11.2342 7.47674 11.4393 7.66282 11.6185 7.88185C11.8701 8.18307 12.0697 8.54104 12.2059 8.93521C12.342 9.32938 12.4121 9.752 12.412 10.1788Z" fill="url(#paint1_linear_3_55)"/>
<path d="M18.5961 13.123V26.7463C18.5961 27.1734 18.5261 27.5962 18.3901 27.9908C18.2541 28.3853 18.0548 28.7438 17.8035 29.0458C17.5523 29.3477 17.254 29.5873 16.9257 29.7507C16.5974 29.9141 16.2456 29.9982 15.8902 29.9982C15.5349 29.9982 15.183 29.9141 14.8547 29.7507C14.5264 29.5873 14.2282 29.3477 13.9769 29.0458C13.7256 28.7438 13.5263 28.3853 13.3903 27.9908C13.2543 27.5962 13.1844 27.1734 13.1844 26.7463V13.123C13.1843 12.6957 13.2543 12.2725 13.3903 11.8777C13.5263 11.4829 13.7257 11.1242 13.9772 10.8221C14.2286 10.5199 14.527 10.2802 14.8555 10.1168C15.184 9.95326 15.5361 9.86916 15.8917 9.86926C15.9883 9.86926 16.0819 9.8763 16.1727 9.8865H16.1788C16.8427 9.97324 17.4565 10.3515 17.9026 10.9487C18.3487 11.5459 18.5957 12.3204 18.5961 13.123Z" fill="url(#paint2_linear_3_55)"/>
<path d="M24.8156 9.25009V22.8769C24.8156 23.7394 24.5305 24.5665 24.0231 25.1764C23.5156 25.7863 22.8274 26.1289 22.1097 26.1289C21.3921 26.1289 20.7039 25.7863 20.1964 25.1764C19.6889 24.5665 19.4039 23.7394 19.4039 22.8769V9.25009C19.4039 8.82297 19.4739 8.40004 19.61 8.00548C19.7461 7.61092 19.9456 7.25247 20.197 6.95061C20.4484 6.64876 20.7469 6.40943 21.0754 6.2463C21.4038 6.08317 21.7558 5.99944 22.1112 5.9999C22.2229 5.99852 22.3344 6.00793 22.4449 6.02804H22.4507C23.0458 6.11458 23.5994 6.43918 24.0224 6.94963C24.274 7.25154 24.4736 7.61014 24.6097 8.00489C24.7458 8.39964 24.8158 8.82279 24.8156 9.25009Z" fill="url(#paint3_linear_3_55)"/>
<path d="M30.9999 12.9678V26.5915C30.9999 27.0186 30.9299 27.4414 30.794 27.836C30.658 28.2305 30.4587 28.589 30.2074 28.891C29.9561 29.1929 29.6578 29.4325 29.3296 29.5959C29.0013 29.7593 28.6494 29.8434 28.2941 29.8434C27.9387 29.8434 27.5869 29.7593 27.2586 29.5959C26.9303 29.4325 26.632 29.1929 26.3808 28.891C26.1295 28.589 25.9302 28.2305 25.7942 27.836C25.6582 27.4414 25.5882 27.0186 25.5882 26.5915V12.9678C25.5882 12.5405 25.6582 12.1174 25.7942 11.7226C25.9303 11.3278 26.1297 10.9691 26.3811 10.667C26.6325 10.3648 26.931 10.1252 27.2595 9.96171C27.5879 9.79821 27.94 9.71407 28.2956 9.71411C28.6536 9.71235 29.0082 9.79867 29.3375 9.96772H29.3404C29.342 9.96972 29.344 9.97099 29.3463 9.97124C29.6685 10.133 29.9609 10.3697 30.2068 10.6677C30.4591 10.9689 30.6591 11.3273 30.7953 11.7222C30.9315 12.117 31.001 12.5404 30.9999 12.9678Z" fill="url(#paint4_linear_3_55)"/>
<g style="mix-blend-mode:multiply" opacity="0.3">
<path d="M12.412 14.1008V23.8056C12.4046 24.6622 12.1162 25.4808 11.6096 26.0834C11.1029 26.686 10.4188 27.024 9.706 27.024C8.99316 27.024 8.30911 26.686 7.80244 26.0834C7.29577 25.4808 7.00741 24.6622 7 23.8056V23.2463C7 23.2463 7.00585 23.3268 7.01756 23.4746C7.02342 23.6258 7.04098 23.8478 7.07054 24.1183C7.1204 24.4407 7.20697 24.7533 7.3278 25.0473C7.54145 25.5695 7.87412 26.0081 8.28708 26.312C8.70004 26.6159 9.17632 26.7725 9.66049 26.7638C9.88006 26.7611 10.0984 26.7244 10.3102 26.6548C10.7577 26.5034 11.1611 26.2049 11.4751 25.793C11.7967 25.3739 12.0084 24.8502 12.0839 24.2875C12.0898 24.2171 12.1044 24.1609 12.1073 24.0799L12.1193 23.8408C12.1249 23.7176 12.122 23.5312 12.1249 23.38C12.1249 23.0634 12.1278 22.7433 12.1307 22.4302C12.1307 21.8006 12.1483 21.1815 12.1544 20.58C12.1746 19.3805 12.2068 18.2616 12.2449 17.3017C12.3154 15.3811 12.412 14.1008 12.412 14.1008Z" fill="black"/>
</g>
<g style="mix-blend-mode:overlay" opacity="0.6">
<path d="M11.0042 7.32611C10.9024 7.28624 10.7988 7.25336 10.694 7.22762C10.4235 7.15229 10.1459 7.12152 9.86859 7.13616C9.78138 7.14007 9.69447 7.15065 9.60839 7.16782C9.51771 7.18121 9.42779 7.20118 9.33912 7.22762C8.73534 7.39174 8.19686 7.80033 7.81395 8.38488C7.68047 8.58145 7.56835 8.79763 7.48029 9.02823C7.39623 9.25149 7.33244 9.485 7.29005 9.7247C7.26852 9.84665 7.25278 9.96994 7.24293 10.094L7.23415 10.189C7.23415 10.1925 7.23122 10.2453 7.22829 10.2699C7.22537 10.3332 7.22244 10.3965 7.21688 10.4563C7.20488 10.7026 7.18439 10.9347 7.16683 11.1493C7.13117 11.6284 7.07549 12.105 7 12.5774V10.1785C7.00054 9.61425 7.12314 9.05994 7.35577 8.56989C7.5884 8.07984 7.92306 7.6709 8.3269 7.38323C8.73074 7.09556 9.18988 6.93903 9.65926 6.92902C10.1286 6.919 10.5921 7.05584 11.0042 7.32611Z" fill="white"/>
</g>
<g style="mix-blend-mode:multiply" opacity="0.3">
<path d="M18.5961 17.0305V26.7463C18.5961 27.1733 18.5261 27.5962 18.3901 27.9907C18.2541 28.3853 18.0548 28.7437 17.8035 29.0457C17.5523 29.3477 17.254 29.5872 16.9257 29.7507C16.5974 29.9141 16.2456 29.9982 15.8902 29.9982C15.5349 29.9982 15.183 29.9141 14.8547 29.7507C14.5264 29.5872 14.2282 29.3477 13.9769 29.0457C13.7256 28.7437 13.5263 28.3853 13.3903 27.9907C13.2543 27.5962 13.1844 27.1733 13.1844 26.7463V26.3523C13.1844 26.3523 13.1902 26.4332 13.2019 26.5806C13.2123 26.7936 13.2368 27.0054 13.2751 27.2137C13.4073 27.938 13.7432 28.5854 14.2263 29.0467C14.5393 29.343 14.9048 29.5487 15.2946 29.6482C15.3942 29.6724 15.4949 29.69 15.5961 29.701C15.7071 29.7101 15.8185 29.7125 15.9297 29.708C16.1502 29.6935 16.3684 29.6473 16.5798 29.5705C17.0175 29.3979 17.408 29.0854 17.7092 28.6665C18.0182 28.2404 18.2157 27.7143 18.277 27.1539C18.2943 27.0094 18.3041 26.8637 18.3063 26.7178L18.3092 26.2426C18.3092 25.926 18.3122 25.6094 18.3154 25.2967C18.3154 24.6741 18.3327 24.0585 18.3388 23.4605C18.359 22.2713 18.3912 21.1601 18.4292 20.2068C18.4995 18.3007 18.5961 17.0305 18.5961 17.0305Z" fill="black"/>
</g>
<g style="mix-blend-mode:overlay" opacity="0.6">
<path d="M16.1727 9.8865C16.1463 9.89389 16.0439 9.91147 15.8829 9.93961C15.7922 9.96775 15.6812 9.98886 15.5609 10.0311C15.4267 10.0782 15.2948 10.1344 15.1658 10.1996C15.0179 10.2782 14.875 10.37 14.7385 10.4743C14.5911 10.5917 14.4512 10.7222 14.32 10.8647C14.186 11.0208 14.0645 11.1915 13.957 11.3748C13.8464 11.5606 13.7523 11.7599 13.6761 11.9692C13.6018 12.1789 13.5451 12.3968 13.5066 12.62C13.487 12.7315 13.4722 12.8442 13.4624 12.9576L13.4478 13.1261L13.4419 13.3094C13.4214 13.7913 13.3892 14.2412 13.3512 14.6285C13.3155 15.0622 13.2598 15.4931 13.1844 15.9194V13.123C13.1843 12.6957 13.2543 12.2725 13.3903 11.8777C13.5263 11.4829 13.7257 11.1242 13.9772 10.8221C14.2286 10.5199 14.527 10.2802 14.8555 10.1168C15.184 9.95326 15.5361 9.86916 15.8917 9.86926C15.9883 9.86926 16.0819 9.8763 16.1727 9.8865Z" fill="white"/>
</g>
<g style="mix-blend-mode:multiply" opacity="0.3">
<path d="M24.8156 10.6431V22.877C24.8156 23.7395 24.5305 24.5666 24.0231 25.1765C23.5156 25.7863 22.8274 26.129 22.1097 26.129C21.3921 26.129 20.7038 25.7863 20.1964 25.1765C19.6889 24.5666 19.4039 23.7395 19.4039 22.877V22.6027C19.4039 22.6027 19.4097 22.6906 19.4214 22.8559C19.4373 23.0926 19.4716 23.3269 19.5239 23.5559C19.6081 23.9048 19.7407 24.2341 19.9161 24.5299C20.1362 24.9077 20.423 25.2224 20.7561 25.4515C21.1427 25.7213 21.5822 25.8622 22.0292 25.8599C22.2662 25.8631 22.5022 25.8227 22.729 25.7403C22.9678 25.6607 23.1948 25.5373 23.4022 25.3745C23.8337 25.0339 24.167 24.5412 24.3564 23.9639L24.4237 23.7459L24.4705 23.5169C24.4881 23.4398 24.491 23.3659 24.5027 23.2921C24.5153 23.2121 24.5211 23.1308 24.5203 23.0494C24.5349 22.7328 24.5203 22.3494 24.5232 22.0047C24.5261 21.2942 24.529 20.5836 24.5349 19.8836C24.5349 19.1836 24.5525 18.4977 24.5583 17.8329C24.5788 16.4998 24.611 15.2581 24.649 14.1923C24.719 12.0606 24.8156 10.6431 24.8156 10.6431Z" fill="black"/>
</g>
<g style="mix-blend-mode:overlay" opacity="0.6">
<path d="M22.4449 6.02804C22.4068 6.03508 22.3102 6.05267 22.1668 6.07377C22.079 6.08081 21.9649 6.12618 21.8419 6.15081C21.7071 6.19554 21.5742 6.24849 21.4439 6.30945C21.2943 6.38439 21.1495 6.47257 21.0107 6.57326C20.8593 6.6845 20.7164 6.81163 20.5837 6.95315C20.5131 7.0235 20.4517 7.10792 20.3876 7.18531C20.329 7.27676 20.2614 7.35731 20.2088 7.45264C20.0944 7.63608 19.9972 7.83415 19.919 8.04323C19.8382 8.25042 19.7764 8.46756 19.7346 8.6908C19.7229 8.80336 19.6936 8.88778 19.6849 9.02145L19.6702 9.20401L19.6673 9.25009V9.2536L19.6644 9.25677V9.28174L19.6614 9.3732C19.6409 9.85862 19.6088 10.3089 19.5707 10.6958C19.5351 11.1307 19.4794 11.5628 19.4039 11.9902V9.25009C19.4039 8.82297 19.4739 8.40004 19.61 8.00548C19.7461 7.61092 19.9456 7.25247 20.197 6.95061C20.4484 6.64876 20.7469 6.40943 21.0754 6.2463C21.4038 6.08317 21.7558 5.99944 22.1112 5.9999C22.2229 5.99852 22.3344 6.00793 22.4449 6.02804Z" fill="white"/>
</g>
<g style="mix-blend-mode:overlay" opacity="0.6">
<path d="M29.3375 9.96772C29.3112 9.96033 29.2058 9.93571 29.039 9.91144C28.9424 9.89737 28.8253 9.88998 28.6936 9.88647C28.5468 9.8858 28.4002 9.89649 28.2546 9.91847C28.0865 9.94855 27.9203 9.99192 27.757 10.0483C27.5811 10.1165 27.4106 10.2037 27.2477 10.3089C26.8997 10.5378 26.5972 10.8546 26.3609 11.2375C26.24 11.4292 26.1379 11.6369 26.0565 11.8566C25.9781 12.069 25.9183 12.2907 25.878 12.5179C25.8561 12.6325 25.8414 12.7489 25.8341 12.8662L25.8253 12.9541L25.8224 12.9717L25.8195 12.9854L25.8165 13.0315C25.8136 13.0913 25.8107 13.1476 25.8077 13.2074C25.7931 13.4395 25.7756 13.6611 25.7551 13.8616C25.7195 14.3163 25.6638 14.7683 25.5882 15.2159V12.9678C25.5882 12.5405 25.6582 12.1174 25.7942 11.7226C25.9303 11.3278 26.1297 10.9691 26.3811 10.667C26.6325 10.3648 26.931 10.1252 27.2595 9.96171C27.5879 9.79821 27.94 9.71407 28.2956 9.71411C28.6536 9.71235 29.0082 9.79867 29.3375 9.96772Z" fill="white"/>
</g>
<g style="mix-blend-mode:multiply" opacity="0.3">
<path d="M30.9999 17.854V26.5915C30.9999 27.0186 30.9299 27.4414 30.794 27.836C30.658 28.2305 30.4587 28.589 30.2074 28.891C29.9561 29.1929 29.6578 29.4325 29.3296 29.5959C29.0013 29.7593 28.6494 29.8435 28.2941 29.8435C27.9387 29.8435 27.5869 29.7593 27.2586 29.5959C26.9303 29.4325 26.632 29.1929 26.3808 28.891C26.1295 28.589 25.9302 28.2305 25.7942 27.836C25.6582 27.4414 25.5882 27.0186 25.5882 26.5915C25.5882 26.5915 25.597 26.6654 25.6146 26.8061C25.622 26.8895 25.6356 26.9719 25.6556 27.0523C25.6737 27.1636 25.6991 27.273 25.7316 27.3794C25.8801 27.9191 26.1459 28.4012 26.5015 28.776C26.857 29.1508 27.2895 29.4045 27.7541 29.5111C27.8507 29.5322 27.9414 29.5392 28.038 29.5533L28.2019 29.5568H28.3102L28.3482 29.5498C28.5546 29.5368 28.759 29.4943 28.957 29.4231C29.3664 29.2707 29.7363 28.9945 30.0312 28.6208C30.1815 28.4288 30.3113 28.2151 30.4175 27.9845C30.5184 27.7507 30.5941 27.5025 30.6429 27.2458C30.669 27.1209 30.6876 26.994 30.6985 26.8659L30.7102 26.6478V26.5915L30.7131 26.5525V26.4438C30.7131 26.1483 30.716 25.8525 30.719 25.5609C30.719 24.9805 30.7365 24.4036 30.7424 23.8514C30.7629 22.7398 30.7951 21.7022 30.8331 20.8158C30.9034 19.0356 30.9999 17.854 30.9999 17.854Z" fill="black"/>
</g>
</g>
</g>
<path d="M46.728 28V10.12H49.992V17.92H57.6V10.12H60.888V28H57.6V20.8H49.992V28H46.728ZM70.2576 28.288C68.9136 28.288 67.7376 27.984 66.7296 27.376C65.7216 26.768 64.9376 25.944 64.3776 24.904C63.8176 23.864 63.5376 22.712 63.5376 21.448C63.5376 20.136 63.8176 18.976 64.3776 17.968C64.9536 16.944 65.7296 16.136 66.7056 15.544C67.6976 14.952 68.8016 14.656 70.0176 14.656C71.0416 14.656 71.9376 14.824 72.7056 15.16C73.4896 15.496 74.1536 15.96 74.6976 16.552C75.2416 17.144 75.6576 17.824 75.9456 18.592C76.2336 19.344 76.3776 20.16 76.3776 21.04C76.3776 21.264 76.3616 21.496 76.3296 21.736C76.3136 21.976 76.2736 22.184 76.2096 22.36H66.1296V19.96H74.4336L72.9456 21.088C73.0896 20.352 73.0496 19.696 72.8256 19.12C72.6176 18.544 72.2656 18.088 71.7696 17.752C71.2896 17.416 70.7056 17.248 70.0176 17.248C69.3616 17.248 68.7776 17.416 68.2656 17.752C67.7536 18.072 67.3616 18.552 67.0896 19.192C66.8336 19.816 66.7376 20.576 66.8016 21.472C66.7376 22.272 66.8416 22.984 67.1136 23.608C67.4016 24.216 67.8176 24.688 68.3616 25.024C68.9216 25.36 69.5616 25.528 70.2816 25.528C71.0016 25.528 71.6096 25.376 72.1056 25.072C72.6176 24.768 73.0176 24.36 73.3056 23.848L75.8496 25.096C75.5936 25.72 75.1936 26.272 74.6496 26.752C74.1056 27.232 73.4576 27.608 72.7056 27.88C71.9696 28.152 71.1536 28.288 70.2576 28.288ZM82.674 28.288C81.762 28.288 80.97 28.136 80.298 27.832C79.626 27.528 79.106 27.096 78.738 26.536C78.37 25.96 78.186 25.296 78.186 24.544C78.186 23.824 78.346 23.184 78.666 22.624C78.986 22.048 79.482 21.568 80.154 21.184C80.826 20.8 81.674 20.528 82.698 20.368L86.97 19.672V22.072L83.298 22.696C82.674 22.808 82.21 23.008 81.906 23.296C81.602 23.584 81.45 23.96 81.45 24.424C81.45 24.872 81.618 25.232 81.954 25.504C82.306 25.76 82.738 25.888 83.25 25.888C83.906 25.888 84.482 25.752 84.978 25.48C85.49 25.192 85.882 24.8 86.154 24.304C86.442 23.808 86.586 23.264 86.586 22.672V19.312C86.586 18.752 86.362 18.288 85.914 17.92C85.482 17.536 84.906 17.344 84.186 17.344C83.514 17.344 82.914 17.528 82.386 17.896C81.874 18.248 81.498 18.72 81.258 19.312L78.69 18.064C78.946 17.376 79.346 16.784 79.89 16.288C80.45 15.776 81.106 15.376 81.858 15.088C82.61 14.8 83.426 14.656 84.306 14.656C85.378 14.656 86.322 14.856 87.138 15.256C87.954 15.64 88.586 16.184 89.034 16.888C89.498 17.576 89.73 18.384 89.73 19.312V28H86.754V25.768L87.426 25.72C87.09 26.28 86.69 26.752 86.226 27.136C85.762 27.504 85.234 27.792 84.642 28C84.05 28.192 83.394 28.288 82.674 28.288ZM92.6359 28V9.832H95.7799V28H92.6359ZM104.635 28.144C103.163 28.144 102.019 27.744 101.203 26.944C100.403 26.128 100.003 24.984 100.003 23.512V17.752H97.7468V14.944H97.9868C98.6268 14.944 99.1228 14.776 99.4748 14.44C99.8268 14.104 100.003 13.616 100.003 12.976V11.968H103.147V14.944H106.147V17.752H103.147V23.344C103.147 23.776 103.219 24.144 103.363 24.448C103.523 24.752 103.763 24.984 104.083 25.144C104.419 25.304 104.843 25.384 105.355 25.384C105.467 25.384 105.595 25.376 105.739 25.36C105.899 25.344 106.051 25.328 106.195 25.312V28C105.971 28.032 105.715 28.064 105.427 28.096C105.139 28.128 104.875 28.144 104.635 28.144ZM108.597 28V9.832H111.741V17.512L111.309 17.056C111.613 16.272 112.109 15.68 112.797 15.28C113.501 14.864 114.317 14.656 115.245 14.656C116.205 14.656 117.053 14.864 117.789 15.28C118.541 15.696 119.125 16.28 119.541 17.032C119.957 17.768 120.165 18.624 120.165 19.6V28H117.021V20.344C117.021 19.768 116.909 19.272 116.685 18.856C116.461 18.44 116.149 18.12 115.749 17.896C115.365 17.656 114.909 17.536 114.381 17.536C113.869 17.536 113.413 17.656 113.013 17.896C112.613 18.12 112.301 18.44 112.077 18.856C111.853 19.272 111.741 19.768 111.741 20.344V28H108.597ZM129.471 28.288C128.335 28.288 127.279 28.08 126.303 27.664C125.343 27.248 124.511 26.672 123.807 25.936C123.119 25.184 122.615 24.312 122.295 23.32L125.007 22.144C125.439 23.168 126.063 23.976 126.879 24.568C127.695 25.144 128.615 25.432 129.639 25.432C130.215 25.432 130.711 25.344 131.127 25.168C131.559 24.976 131.887 24.72 132.111 24.4C132.351 24.08 132.471 23.696 132.471 23.248C132.471 22.72 132.311 22.288 131.991 21.952C131.687 21.6 131.223 21.328 130.599 21.136L127.167 20.032C125.775 19.6 124.727 18.952 124.023 18.088C123.319 17.224 122.967 16.208 122.967 15.04C122.967 14.016 123.215 13.112 123.711 12.328C124.223 11.544 124.927 10.936 125.823 10.504C126.735 10.056 127.775 9.832 128.943 9.832C130.015 9.832 130.999 10.024 131.895 10.408C132.791 10.776 133.559 11.296 134.199 11.968C134.855 12.624 135.343 13.4 135.663 14.296L132.975 15.496C132.623 14.6 132.095 13.912 131.391 13.432C130.687 12.936 129.871 12.688 128.943 12.688C128.399 12.688 127.919 12.784 127.503 12.976C127.087 13.152 126.759 13.408 126.519 13.744C126.295 14.064 126.183 14.448 126.183 14.896C126.183 15.392 126.343 15.832 126.663 16.216C126.983 16.584 127.471 16.872 128.127 17.08L131.415 18.112C132.839 18.576 133.903 19.216 134.607 20.032C135.327 20.848 135.687 21.856 135.687 23.056C135.687 24.08 135.423 24.984 134.895 25.768C134.367 26.552 133.639 27.168 132.711 27.616C131.783 28.064 130.703 28.288 129.471 28.288ZM139.946 33.304C139.594 33.304 139.25 33.272 138.914 33.208C138.578 33.16 138.274 33.072 138.002 32.944V30.304C138.21 30.352 138.458 30.4 138.746 30.448C139.05 30.496 139.33 30.52 139.586 30.52C140.306 30.52 140.826 30.352 141.146 30.016C141.482 29.68 141.778 29.24 142.034 28.696L142.898 26.68L142.85 29.32L137.162 14.944H140.546L144.53 25.552H143.33L147.29 14.944H150.698L145.01 29.32C144.674 30.168 144.266 30.888 143.786 31.48C143.306 32.072 142.746 32.52 142.106 32.824C141.482 33.144 140.762 33.304 139.946 33.304ZM152.425 28V14.944H155.377V17.512L155.137 17.056C155.441 16.272 155.937 15.68 156.625 15.28C157.329 14.864 158.145 14.656 159.073 14.656C160.033 14.656 160.881 14.864 161.617 15.28C162.369 15.696 162.953 16.28 163.369 17.032C163.785 17.768 163.993 18.624 163.993 19.6V28H160.849V20.344C160.849 19.768 160.737 19.272 160.513 18.856C160.289 18.44 159.977 18.12 159.577 17.896C159.193 17.656 158.737 17.536 158.209 17.536C157.697 17.536 157.241 17.656 156.841 17.896C156.441 18.12 156.129 18.44 155.905 18.856C155.681 19.272 155.569 19.768 155.569 20.344V28H152.425ZM172.94 28.288C171.644 28.288 170.476 27.992 169.436 27.4C168.412 26.792 167.604 25.976 167.012 24.952C166.42 23.912 166.124 22.744 166.124 21.448C166.124 20.152 166.42 18.992 167.012 17.968C167.604 16.944 168.412 16.136 169.436 15.544C170.476 14.952 171.644 14.656 172.94 14.656C173.868 14.656 174.732 14.824 175.532 15.16C176.332 15.48 177.02 15.928 177.596 16.504C178.188 17.064 178.612 17.736 178.868 18.52L176.108 19.72C175.868 19.064 175.46 18.536 174.884 18.136C174.324 17.736 173.676 17.536 172.94 17.536C172.252 17.536 171.636 17.704 171.092 18.04C170.564 18.376 170.148 18.84 169.844 19.432C169.54 20.024 169.388 20.704 169.388 21.472C169.388 22.24 169.54 22.92 169.844 23.512C170.148 24.104 170.564 24.568 171.092 24.904C171.636 25.24 172.252 25.408 172.94 25.408C173.692 25.408 174.348 25.208 174.908 24.808C175.468 24.408 175.868 23.872 176.108 23.2L178.868 24.448C178.612 25.184 178.196 25.848 177.62 26.44C177.044 27.016 176.356 27.472 175.556 27.808C174.756 28.128 173.884 28.288 172.94 28.288Z" fill="white"/>
<defs>
<filter id="filter0_dd_3_55" x="0" y="0" width="38" height="38" filterUnits="userSpaceOnUse" color-interpolation-filters="sRGB">
<feFlood flood-opacity="0" result="BackgroundImageFix"/>
<feColorMatrix in="SourceAlpha" type="matrix" values="0 0 0 0 0 0 0 0 0 0 0 0 0 0 0 0 0 0 127 0" result="hardAlpha"/>
<feOffset dy="1"/>
<feGaussianBlur stdDeviation="1"/>
<feColorMatrix type="matrix" values="0 0 0 0 0.0627451 0 0 0 0 0.0941176 0 0 0 0 0.156863 0 0 0 0.06 0"/>
<feBlend mode="normal" in2="BackgroundImageFix" result="effect1_dropShadow_3_55"/>
<feColorMatrix in="SourceAlpha" type="matrix" values="0 0 0 0 0 0 0 0 0 0 0 0 0 0 0 0 0 0 127 0" result="hardAlpha"/>
<feOffset dy="1"/>
<feGaussianBlur stdDeviation="1.5"/>
<feColorMatrix type="matrix" values="0 0 0 0 0.0627451 0 0 0 0 0.0941176 0 0 0 0 0.156863 0 0 0 0.1 0"/>
<feBlend mode="normal" in2="effect1_dropShadow_3_55" result="effect2_dropShadow_3_55"/>
<feBlend mode="normal" in="SourceGraphic" in2="effect2_dropShadow_3_55" result="shape"/>
</filter>
<linearGradient id="paint0_linear_3_55" x1="19" y1="2" x2="19" y2="34" gradientUnits="userSpaceOnUse">
<stop stop-color="white"/>
<stop offset="1" stop-color="#D0D5DD"/>
</linearGradient>
<linearGradient id="paint1_linear_3_55" x1="9.706" y1="6.54677" x2="9.706" y2="24.9141" gradientUnits="userSpaceOnUse">
<stop stop-color="#99E2B4"/>
<stop offset="0.162" stop-color="#88D4AB"/>
<stop offset="0.307" stop-color="#78C6A3"/>
<stop offset="0.446" stop-color="#67B99A"/>
<stop offset="0.581" stop-color="#56AB91"/>
<stop offset="0.712" stop-color="#469D89"/>
<stop offset="0.842" stop-color="#358F80"/>
<stop offset="0.967" stop-color="#248277"/>
<stop offset="1" stop-color="#14746F"/>
</linearGradient>
<linearGradient id="paint2_linear_3_55" x1="15.8902" y1="10.1712" x2="15.8902" y2="30.5618" gradientUnits="userSpaceOnUse">
<stop stop-color="#22577A"/>
<stop offset="1" stop-color="#38A3A5"/>
</linearGradient>
<linearGradient id="paint3_linear_3_55" x1="22.1097" y1="6.54326" x2="22.1097" y2="24.9413" gradientUnits="userSpaceOnUse">
<stop stop-color="#99E2B4"/>
<stop offset="0.02" stop-color="#97E0B3"/>
<stop offset="0.162" stop-color="#88D4AB"/>
<stop offset="0.307" stop-color="#78C6A3"/>
<stop offset="0.3071" stop-color="#76C4A2"/>
<stop offset="0.446" stop-color="#67B99A"/>
<stop offset="0.581" stop-color="#56AB91"/>
<stop offset="0.712" stop-color="#469D89"/>
<stop offset="0.842" stop-color="#358F80"/>
<stop offset="0.967" stop-color="#248277"/>
<stop offset="1" stop-color="#14746F"/>
</linearGradient>
<linearGradient id="paint4_linear_3_55" x1="28.2941" y1="10.177" x2="28.2941" y2="30.5681" gradientUnits="userSpaceOnUse">
<stop stop-color="#22577A"/>
<stop offset="1" stop-color="#38A3A5"/>
</linearGradient>
</defs>
</svg>
